<svg xmlns="http://www.w3.org/2000/svg" width="40" height="40" viewBox="0 0 40 40">
  <g id="svg_main_list_outline" transform="translate(-20 -24)">
    <path id="Exclusion_1" data-name="Exclusion 1" d="M20,40A20,20,0,0,1,5.858,5.858,20,20,0,1,1,34.142,34.142,19.869,19.869,0,0,1,20,40ZM20,1.778A18.222,18.222,0,1,0,38.222,20,18.243,18.243,0,0,0,20,1.778Z" transform="translate(20 24)" fill="#73d1fc"/>
    <path id="Union_9" data-name="Union 9" d="M8,10.666a2.667,2.667,0,1,1,2.666,2.667A2.666,2.666,0,0,1,8,10.666Zm-8,0a2.667,2.667,0,1,1,2.666,2.667A2.666,2.666,0,0,1,0,10.666Zm8-8a2.667,2.667,0,1,1,2.666,2.667A2.666,2.666,0,0,1,8,2.666Zm-8,0A2.667,2.667,0,1,1,2.666,5.334,2.666,2.666,0,0,1,0,2.666Z" transform="translate(33.333 37.333)" fill="#fff"/>
  </g>
</svg>
