<svg xmlns="http://www.w3.org/2000/svg" width="40" height="40" viewBox="0 0 40 40">
  <g id="svg_circle_arrow_backward_outline" transform="translate(-20 -24)">
    <path id="ionic-ios-arrow-forward" d="M13.851,13.749l5.718-5.714a1.075,1.075,0,0,0,0-1.525,1.089,1.089,0,0,0-1.53,0l-6.479,6.474a1.078,1.078,0,0,0-.031,1.489l6.506,6.519a1.08,1.08,0,1,0,1.53-1.525Z" transform="translate(23.671 30.693)" fill="#fff"/>
    <path id="Subtraction_4" data-name="Subtraction 4" d="M20,40A20,20,0,0,1,5.858,5.858,20,20,0,1,1,34.142,34.142,19.869,19.869,0,0,1,20,40ZM20,1.778A18.222,18.222,0,1,0,38.222,20,18.243,18.243,0,0,0,20,1.778Z" transform="translate(20 24)" fill="#71cdfe"/>
  </g>
</svg>
